<svg version="1.1" id="ctd_logomark" xmlns="http://www.w3.org/2000/svg" xmlns:xlink="http://www.w3.org/1999/xlink" x="0px" y="0px"
	 width="117.34305px" height="66.05851px" viewBox="0 0 117.34305 66.05851" enable-background="new 0 0 117.34305 66.05851"
	 xml:space="preserve" preserveAspectRatio="xMinYMin">
<g>
	<polygon fill="#6BBBAE" points="112.02021,7.74721 5.30477,7.47353 5.31415,3.87361 22.65716,0 94.70675,0.27369 112.0303,3.87361 
			"/>
	<g>
		<path fill="#6BBBAE" d="M0,10.35642v3.7464l5.30354,2.09343L5.14287,66.05851h24.48687
			c0.03002-18.23872,0.074-25.43854,0.07569-25.86729c0.01099-3.57586,3.20673-6.47689,7.1272-6.47689
			c0.00719,0,0.01564,0,0.02283,0c2.69088,0.00719,4.35852,1.14079,5.28283,2.09089c1.17039,1.20295,1.84269,2.81942,1.84776,4.4507
			v25.80259h7.4735V40.29609c0-0.01691,0-0.03382,0-0.05116c0.01818-3.57121,3.22238-6.46632,7.15131-6.46632
			c0.00845,0,0.01564,0,0.02283,0c2.69469,0.00719,4.36698,1.14333,5.29509,2.09596c1.1835,1.21267,1.86003,2.84268,1.85495,4.48368
			v25.70027h7.47392v-25.6897c0-0.01945,0-0.0389,0-0.0592c0.01691-3.57037,3.22449-6.46505,7.16061-6.46505
			c0.00719,0,0.01564,0,0.02325,0c2.70272,0.00719,4.38643,1.14671,5.32299,2.10146c1.19069,1.21436,1.86933,2.84056,1.86468,4.4655
			l-0.05243,25.64699h24.25389l0.16279-49.63351l5.34962-1.90738v-3.83308L0,10.35642z M104.38377,58.58543h-9.35297
			l0.07188-18.15066c0.01226-3.57248-1.44777-7.11579-4.00335-9.72253c-2.73443-2.78813-6.51241-4.33061-10.6371-4.34161
			c-0.0148,0-0.03045,0-0.04524,0c-4.29002,0-8.15807,1.7725-10.83795,4.60165c-0.09852-0.10698-0.19958-0.21395-0.3019-0.31839
			c-2.72556-2.79194-6.49761-4.33653-10.62146-4.34879c-0.01438,0-0.02917,0-0.04482,0c-4.28537,0-8.1513,1.77208-10.82949,4.59192
			c-0.09387-0.10232-0.18985-0.20423-0.2871-0.30401c-2.72091-2.79532-6.49212-4.34161-10.61808-4.3526
			c-0.01437,0-0.02917,0-0.04355,0c-8.03079,0-14.57618,6.23926-14.60028,13.92671l-0.09049,18.41831h-9.50096l0.14461-40.55594
			v-0.16194l91.74287,0.25285L104.38377,58.58543z"/>
	</g>
</g>
</svg>
