<svg version="1.1" id="ctd_logo" xmlns="http://www.w3.org/2000/svg" xmlns:xlink="http://www.w3.org/1999/xlink" x="0px" y="0px"
	 width="224.46434px" height="103.83752px" viewBox="0 0 224.46434 103.83752" enable-background="new 0 0 224.46434 103.83752"
	 xml:space="preserve">
<g>
	<g>
		
			<rect x="110.18611" y="-29.83524" transform="matrix(0.00248 -1 1 0.00248 109.83002 113.76469)" fill="#333333" width="3.50494" height="63.33246"/>
		
			<rect x="109.91571" y="-29.82755" transform="matrix(0.00248 -1 1 0.00248 104.29953 119.2476)" fill="#333333" width="4.01179" height="74.34421"/>
		<path fill="#333333" d="M72.56899,15.29931l-0.06776,27.31463l78.6692-0.03917l0.06758-27.20924l2.29146-2.55272l0.01353-1.48432
			l-83.25883-0.20644l0.03594,1.47097L72.56899,15.29931z M124.761,22.37253l0.01998-0.00001l-0.00002-0.03735
			c0.00989-4.02828,3.28284-7.2838,7.30781-7.27391c4.50529,0.01108,7.34013,3.65539,7.33102,7.34774l-0.04637,18.67923
			l-14.6588-0.03624L124.761,22.37253z M104.55677,22.3224l0.01761,0.00023l-0.00002-0.03759
			c0.01013-4.02828,3.28285-7.2838,7.31113-7.27391c4.5022,0.01132,7.33585,3.65539,7.32674,7.34751l-0.04636,18.67947
			l-14.65547-0.03624L104.55677,22.3224z M84.38442,22.27249l0.01641-0.00001c0-0.01332-0.00215-0.02641-0.00216-0.03735
			c0.01013-4.02852,3.28285-7.28404,7.31113-7.27391c4.50434,0.01108,7.34037,3.65539,7.33103,7.34751L98.99471,40.9882
			l-14.65665-0.03648L84.38442,22.27249z"/>
	</g>
	<g>
		<path fill="#77BAB0" d="M224.46434,87.88039H0V39.47839h224.46434V87.88039z M4.67786,83.20252h215.10863V44.15626H4.67786
			V83.20252z"/>
	</g>
	<g>
		<path fill="#333333" d="M21.88773,66.68324v6.0743c0,1.69106-1.06964,2.82969-2.7607,2.82969h-4.83194
			c-1.65632,0-2.79543-1.13863-2.79543-2.82969V54.7421c0-1.76006,1.13911-2.86443,2.79543-2.86443h4.83194
			c1.69106,0,2.7607,1.10437,2.7607,2.86443v5.97057h-3.86507v-5.07318c0-0.20698-0.13799-0.3797-0.24172-0.3797h-2.13976
			c-0.13799,0-0.24124,0.17272-0.24124,0.3797v16.22065c0,0.20698,0.10325,0.34496,0.24124,0.34496h2.13976
			c0.10373,0,0.24172-0.13799,0.24172-0.34496v-5.17691H21.88773z"/>
		<path fill="#333333" d="M35.83254,75.38025h-3.83081v-6.76424h-2.76117v6.76424h-3.83081V54.46613
			c0-1.38035,0.96639-2.38147,2.34721-2.38147h5.69412c1.41508,0,2.38147,1.00112,2.38147,2.38147V75.38025z M32.00172,65.40614
			v-9.42168c0-0.31023-0.20698-0.51769-0.48295-0.51769h-1.79479c-0.27597,0-0.48343,0.20746-0.48343,0.51769v9.42168H32.00172z"/>
		<path fill="#333333" d="M45.60157,67.61489h-1.31136v7.76536H40.3904v-23.2956h7.83387c1.7258,0,2.79544,1.13911,2.79544,2.8649
			v9.80091c0,1.34609-0.65568,2.31248-1.72532,2.69218l1.76005,7.93761h-3.83081L45.60157,67.61489z M47.22363,55.77748
			c0-0.17225-0.13799-0.34497-0.24171-0.34497h-2.69171v8.97298h2.69171c0.10373,0,0.24171-0.17272,0.24171-0.31071V55.77748z"/>
		<path fill="#333333" d="M63.41145,51.87767c1.38035,0,2.38147,1.00112,2.38147,2.38147V73.1715
			c0,1.38035-1.00112,2.38147-2.38147,2.38147h-5.97057c-1.41508,0-2.38147-1.00112-2.38147-2.38147V54.25914
			c0-1.38035,0.96639-2.38147,2.38147-2.38147H63.41145z M61.89312,55.5015c0-0.20698-0.13799-0.3797-0.20746-0.3797h-2.55371
			c-0.17272,0-0.17272,0.24171-0.17272,0.3797v16.3929c0,0.10373,0.03473,0.31071,0.17272,0.31071h2.55371
			c0.06947,0,0.20746-0.13799,0.20746-0.31071V55.5015z"/>
		<path fill="#333333" d="M70.35079,52.08465h3.86507v19.84449h4.4865v3.45111h-8.35156V52.08465z"/>
		<path fill="#333333" d="M85.46802,75.38025h-3.69235v-23.2956h3.69235V75.38025z"/>
		<path fill="#333333" d="M93.5103,62.26574v13.11451h-3.27839v-23.2956h3.24413l4.4175,14.01191V52.08465h3.27839v23.2956h-3.2094
			L93.5103,62.26574z"/>
		<path fill="#333333" d="M116.15212,75.38025h-3.83082v-6.76424h-2.76118v6.76424h-3.83081V54.46613
			c0-1.38035,0.96638-2.38147,2.34721-2.38147h5.69411c1.41508,0,2.38148,1.00112,2.38148,2.38147V75.38025z M112.3213,65.40614
			v-9.42168c0-0.31023-0.20698-0.51769-0.48343-0.51769h-1.79431c-0.27598,0-0.48344,0.20746-0.48344,0.51769v9.42168H112.3213z"/>
		<path fill="#333333" d="M130.99432,55.43251v19.94774h-3.86507V55.43251h-2.93342v-3.34786h9.73192v3.34786H130.99432z"/>
		<path fill="#333333" d="M136.86307,75.38025v-23.2956h3.83081v10.25008h3.17514V52.08465h3.83034v23.2956h-3.83034V65.5446
			h-3.17514v9.83565H136.86307z"/>
		<path fill="#333333" d="M152.46468,52.08465h8.59329v3.34786h-4.69348v6.55725h3.83081v3.24413h-3.83081v6.79849h4.69348v3.34786
			h-8.59329V52.08465z"/>
		<path fill="#333333" d="M175.03656,75.38025h-3.83083v-6.76424h-2.76117v6.76424h-3.83081V54.46613
			c0-1.38035,0.96638-2.38147,2.34721-2.38147h5.69412c1.41507,0,2.38147,1.00112,2.38147,2.38147V75.38025z M171.20573,65.40614
			v-9.42168c0-0.31023-0.20697-0.51769-0.48343-0.51769h-1.79431c-0.27597,0-0.48343,0.20746-0.48343,0.51769v9.42168H171.20573z"/>
		<path fill="#333333" d="M184.56339,55.43251v19.94774h-3.86507V55.43251h-2.9339v-3.34786h9.73239v3.34786H184.56339z"/>
		<path fill="#333333" d="M195.6433,67.61489h-1.31136v7.76536h-3.89981v-23.2956h7.83388c1.7258,0,2.79544,1.13911,2.79544,2.8649
			v9.80091c0,1.34609-0.65569,2.31248-1.72533,2.69218l1.76006,7.93761h-3.83081L195.6433,67.61489z M197.26537,55.77748
			c0-0.17225-0.13799-0.34497-0.24171-0.34497h-2.69171v8.97298h2.69171c0.10373,0,0.24171-0.17272,0.24171-0.31071V55.77748z"/>
		<path fill="#333333" d="M205.30908,52.08465h8.59328v3.34786h-4.69348v6.55725h3.83083v3.24413h-3.83083v6.79849h4.69348v3.34786
			h-8.59328V52.08465z"/>
	</g>
	<g>
		<path fill="#333333" d="M46.85297,94.14082c0.79842,0,1.32611,0.52769,1.32611,1.32611v6.97311
			c0,0.79842-0.52768,1.32611-1.32611,1.32611h-3.10852v-9.62534H46.85297z M46.56796,95.75241
			c0-0.12847-0.08565-0.22839-0.22839-0.22839h-0.98399v6.85892h0.98399c0.14275,0,0.22839-0.09992,0.22839-0.22791V95.75241z"/>
		<path fill="#333333" d="M56.56347,94.05517c0.57051,0,0.98399,0.41349,0.98399,0.98399v7.81437
			c0,0.5705-0.41349,0.98399-0.98399,0.98399h-2.46664c-0.58478,0-0.98399-0.41349-0.98399-0.98399v-7.81437
			c0-0.5705,0.39921-0.98399,0.98399-0.98399H56.56347z M55.93634,95.55257c0-0.08564-0.0571-0.15701-0.08565-0.15701h-1.05536
			c-0.0709,0-0.0709,0.09991-0.0709,0.15701v6.77328c0,0.04282,0.0138,0.12847,0.0709,0.12847h1.05536
			c0.02855,0,0.08565-0.0571,0.08565-0.12847V95.55257z"/>
		<path fill="#333333" d="M64.52058,103.76615h-1.35465l-1.25473-9.62534h1.51167l0.58431,6.23132l0.77035-6.23132h1.34038
			l0.8127,6.27414l0.59906-6.27414h1.42603l-1.24094,9.62534h-1.34038l-0.9269-6.40262L64.52058,103.76615z"/>
		<path fill="#333333" d="M74.88772,98.34753v5.41862h-1.35465v-9.62534h1.34038l1.82524,5.78928v-5.78928h1.35465v9.62534h-1.3261
			L74.88772,98.34753z"/>
		<path fill="#333333" d="M85.21107,95.52402v8.24213h-1.59685v-8.24213h-1.21239v-1.3832h4.02162v1.3832H85.21107z"/>
		<path fill="#333333" d="M94.13743,94.05517c0.5705,0,0.98399,0.41349,0.98399,0.98399v7.81437
			c0,0.5705-0.41349,0.98399-0.98399,0.98399h-2.46664c-0.58478,0-0.98399-0.41349-0.98399-0.98399v-7.81437
			c0-0.5705,0.39922-0.98399,0.98399-0.98399H94.13743z M93.5103,95.55257c0-0.08564-0.0571-0.15701-0.08565-0.15701h-1.05537
			c-0.07137,0-0.07137,0.09991-0.07137,0.15701v6.77328c0,0.04282,0.01427,0.12847,0.07137,0.12847h1.05537
			c0.02855,0,0.08565-0.0571,0.08565-0.12847V95.55257z"/>
		<path fill="#333333" d="M102.09454,103.76615h-1.35466l-1.25473-9.62534h1.51167l0.5843,6.23132l0.77035-6.23132h1.34039
			l0.8127,6.27414l0.59905-6.27414h1.42603l-1.24093,9.62534h-1.34039l-0.9269-6.40262L102.09454,103.76615z"/>
		<path fill="#333333" d="M112.46167,98.34753v5.41862h-1.35465v-9.62534h1.34038l1.82524,5.78928v-5.78928h1.35465v9.62534h-1.3261
			L112.46167,98.34753z"/>
		<path fill="#333333" d="M129.17337,94.14082c0.79842,0,1.3261,0.52769,1.3261,1.32611v6.97311
			c0,0.79842-0.52768,1.32611-1.3261,1.32611h-3.10853v-9.62534H129.17337z M128.88835,95.75241
			c0-0.12847-0.08565-0.22839-0.22839-0.22839h-0.98399v6.85892h0.98399c0.14275,0,0.22839-0.09992,0.22839-0.22791V95.75241z"/>
		<path fill="#333333" d="M137.13,94.14082v8.15648c0,0.07137,0.0571,0.12847,0.08565,0.12847h0.96971
			c0.02855,0,0.08565-0.0571,0.08565-0.12847v-8.15648h1.6254v8.45625c0,0.6985-0.47058,1.16909-1.18335,1.16909h-2.02509
			c-0.71278,0-1.1691-0.47059-1.1691-1.16909v-8.45625H137.13z"/>
		<path fill="#333333" d="M147.15454,100.5577h-0.54195v3.20845h-1.61113v-9.62534h3.237c0.71277,0,1.1548,0.47059,1.1548,1.18336
			v4.05016c0,0.55576-0.27074,0.95544-0.71277,1.11198l0.72705,3.27982h-1.58258L147.15454,100.5577z M147.82497,95.66676
			c0-0.07137-0.05708-0.14275-0.09991-0.14275h-1.11246v3.70758h1.11246c0.04283,0,0.09991-0.07137,0.09991-0.12847V95.66676z"/>
		<path fill="#333333" d="M154.28468,103.76615v-9.62534h1.58258v4.23526h1.3123v-4.23526h1.58257v9.62534h-1.58257v-4.06397
			h-1.3123v4.06397H154.28468z"/>
		<path fill="#333333" d="M168.08771,103.76615h-1.58305v-2.79496h-1.14053v2.79496h-1.58305v-8.64134
			c0-0.5705,0.39922-0.98399,0.96973-0.98399h2.35292c0.5843,0,0.98399,0.41349,0.98399,0.98399V103.76615z M166.50465,99.64509
			v-3.89268c0-0.12847-0.08565-0.21412-0.19984-0.21412h-0.74132c-0.1142,0-0.19937,0.08565-0.19937,0.21412v3.89268H166.50465z"/>
		<path fill="#333333" d="M174.54741,98.06203v5.70412h-1.44029v-9.62534h1.41174l1.35466,4.54883l1.28328-4.54883h1.46886v9.62534
			h-1.51167v-5.70412l-1.01254,3.109h-0.55623L174.54741,98.06203z"/>
	</g>
</g>
</svg>
