<svg version="1.1" id="ctd_logomark" xmlns="http://www.w3.org/2000/svg" xmlns:xlink="http://www.w3.org/1999/xlink" x="0px" y="0px"
	 width="83.25883px" height="44.61554px" viewBox="0 0 83.25883 44.61554" enable-background="new 0 0 83.25883 44.61554"
	 xml:space="preserve" preserveAspectRatio="xMinYMin">
<g>
	<rect x="39.90194" y="-29.83524" transform="matrix(0.00248 -1 1 0.00248 39.72013 43.48073)" fill="#6BBBAE" width="3.50494" height="63.33246"/>

	<rect x="39.63153" y="-29.82755" transform="matrix(0.00248 -1 1 0.00248 34.18965 48.96364)" fill="#6BBBAE" width="4.01179" height="74.34421"/>
	<path fill="#6BBBAE" d="M2.28482,15.29931L2.21706,44.61554l78.6692-0.03918l0.06757-29.21084l2.29146-2.55272l0.01354-1.48432
		L0,11.12205l0.03594,1.47097L2.28482,15.29931z M54.47683,22.37253l0.01998-0.00001l-0.00002-0.03735
		c0.00989-4.02828,3.28285-7.2838,7.3078-7.27391c4.50529,0.01108,7.34013,3.65539,7.33103,7.34774l-0.04637,18.67923
		L54.43046,41.052L54.47683,22.37253z M34.2726,22.3224l0.0176,0.00023l-0.00002-0.03759
		c0.01013-4.02828,3.28285-7.2838,7.31114-7.27391c4.5022,0.01132,7.33585,3.65539,7.32674,7.34751l-0.04637,18.67947
		l-14.65546-0.03624L34.2726,22.3224z M14.10025,22.27249l0.01642-0.00001c-0.00001-0.01332-0.00215-0.02641-0.00216-0.03735
		c0.01013-4.02852,3.28285-7.28404,7.31114-7.27391c4.50434,0.01108,7.34037,3.65539,7.33103,7.34751L28.71054,40.9882
		l-14.65666-0.03648L14.10025,22.27249z"/>
</g>
</svg>
