<svg version="1.1" id="ctd_logo" xmlns="http://www.w3.org/2000/svg" xmlns:xlink="http://www.w3.org/1999/xlink" x="0px" y="0px"
	 width="501.9881px" height="66.05886px" viewBox="0 0 501.9881 66.05886" enable-background="new 0 0 501.9881 66.05886"
	 xml:space="preserve">
<g>
	<g>
		<polygon fill="#6BBBAE" points="112.02021,7.74721 5.30477,7.47353 5.31415,3.87361 22.65716,0 94.70675,0.27369 
			112.0303,3.87361 		"/>
		<g>
			<path fill="#6BBBAE" d="M0,10.35642v3.7464l5.30354,2.09343L5.14287,66.05851h24.48687
				c0.03002-18.23872,0.074-25.43854,0.07569-25.86729c0.01099-3.57586,3.20673-6.47689,7.1272-6.47689
				c0.00719,0,0.01564,0,0.02283,0c2.69088,0.00719,4.35852,1.14079,5.28283,2.09089
				c1.17039,1.20295,1.84269,2.81942,1.84776,4.4507v25.80259h7.4735V40.29609c0-0.01691,0-0.03382,0-0.05116
				c0.01818-3.57121,3.22238-6.46632,7.15131-6.46632c0.00845,0,0.01564,0,0.02283,0
				c2.69469,0.00719,4.36698,1.14333,5.29509,2.09596c1.1835,1.21267,1.86003,2.84268,1.85495,4.48368v25.70027h7.47392v-25.6897
				c0-0.01945,0-0.0389,0-0.0592c0.01691-3.57037,3.22449-6.46505,7.16061-6.46505c0.00719,0,0.01564,0,0.02325,0
				c2.70272,0.00719,4.38643,1.14671,5.32299,2.10146c1.19069,1.21436,1.86933,2.84056,1.86468,4.4655l-0.05243,25.64699h24.25389
				l0.16279-49.63351l5.34962-1.90738v-3.83308L0,10.35642z M104.38377,58.58543h-9.35297l0.07188-18.15066
				c0.01226-3.57248-1.44777-7.11579-4.00335-9.72253c-2.73443-2.78813-6.51241-4.33061-10.6371-4.34161
				c-0.0148,0-0.03045,0-0.04524,0c-4.29002,0-8.15807,1.7725-10.83795,4.60165c-0.09852-0.10698-0.19958-0.21395-0.3019-0.31839
				c-2.72556-2.79194-6.49761-4.33653-10.62146-4.34879c-0.01438,0-0.02917,0-0.04482,0c-4.28537,0-8.1513,1.77208-10.82949,4.59192
				c-0.09387-0.10232-0.18985-0.20423-0.2871-0.30401c-2.72091-2.79532-6.49212-4.34161-10.61808-4.3526
				c-0.01437,0-0.02917,0-0.04355,0c-8.03079,0-14.57618,6.23926-14.60028,13.92671l-0.09049,18.41831h-9.50096l0.14461-40.55594
				v-0.16194l91.74287,0.25285L104.38377,58.58543z"/>
		</g>
	</g>
	<g>
		<path fill="#333333" d="M152.00468,27.40652v10.14844c0,2.71094-1.90332,4.61328-4.61328,4.61328h-12.28223
			c-2.65234,0-4.55566-1.90234-4.55566-4.61328V7.45535c0-2.76758,1.90332-4.6709,4.55566-4.6709h12.28223
			c2.70996,0,4.61328,1.90332,4.61328,4.6709v9.97558h-7.78418v-7.38086c0-0.3457-0.23145-0.63379-0.4043-0.63379h-4.95898
			c-0.28809,0-0.51855,0.28809-0.51855,0.63379v24.85254c0,0.34668,0.23047,0.57715,0.51855,0.57715h4.84375
			c0.28809,0,0.51953-0.23047,0.51953-0.57715v-7.4961H152.00468z"/>
		<path fill="#333333" d="M178.09355,41.93777h-7.72656V31.21218h-6.16992v10.72559h-7.72754V7.22488
			c0-2.47949,1.67285-4.20996,4.15234-4.20996h13.2627c2.47949,0,4.20898,1.73047,4.20898,4.20996V41.93777z M170.36699,24.75418
			V10.45339c0-0.57617-0.46191-0.92188-1.03809-0.92188h-4.15234c-0.57617,0-0.97949,0.40332-0.97949,0.92188v14.30078H170.36699z"
			/>
		<path fill="#333333" d="M200.56328,3.01492c2.70996,0,4.55469,1.90332,4.55469,4.61328v16.95312
			c0,2.36426-1.38379,4.09375-3.5166,4.49805l3.63281,12.8584h-7.66992l-3.51758-12.74317h-2.94043v12.74317h-7.78418V3.01492
			H200.56328z M197.44902,10.22293c0-0.28809-0.23047-0.57617-0.46094-0.57617h-5.88184v13.26269h5.88184
			c0.23047,0,0.46094-0.28906,0.46094-0.51953V10.22293z"/>
		<path fill="#333333" d="M227.77617,2.78445c2.47949,0,4.20898,1.73047,4.20898,4.20996v30.90723
			c0,2.47949-1.72949,4.20898-4.20898,4.20898h-13.6084c-2.53711,0-4.20996-1.72949-4.20996-4.20898V6.99441
			c0-2.47949,1.67285-4.20996,4.20996-4.20996H227.77617z M224.20097,9.93484c0-0.3457-0.28809-0.63477-0.46094-0.63477h-5.59375
			c-0.28809,0-0.40332,0.4043-0.40332,0.63477v25.02539c0,0.23145,0.17285,0.51953,0.40332,0.51953h5.59375
			c0.17285,0,0.46094-0.23047,0.46094-0.51953V9.93484z"/>
		<path fill="#333333" d="M237.21367,3.01492h7.72656v32.17676h9.28418v6.74609h-17.01074V3.01492z"/>
		<path fill="#333333" d="M265.8631,41.93777h-7.55371V3.01492h7.55371V41.93777z"/>
		<path fill="#333333" d="M278.03009,20.37136v21.56641h-6.86133V3.01492h6.80371l8.93848,22.48926V3.01492h6.86133v38.92285
			h-6.86133L278.03009,20.37136z"/>
		<path fill="#333333" d="M320.62286,41.93777h-7.72656V31.21218h-6.16992v10.72559h-7.72754V7.22488
			c0-2.47949,1.67285-4.20996,4.15234-4.20996h13.2627c2.47949,0,4.20898,1.73047,4.20898,4.20996V41.93777z M312.8963,24.75418
			V10.45339c0-0.57617-0.46191-0.92188-1.03809-0.92188h-4.15234c-0.57617,0-0.97949,0.40332-0.97949,0.92188v14.30078H312.8963z"/>
		<path fill="#333333" d="M352.74591,3.01492v6.63184h-6.34277v32.29102h-7.78516V9.64675h-6.34277V3.01492H352.74591z"/>
		<path fill="#333333" d="M378.88654,41.93777h-7.72656V25.84988h-6.8623v16.08789h-7.72656V3.01492h7.72656v16.31934h6.8623
			V3.01492h7.72656V41.93777z"/>
		<path fill="#333333" d="M384.27032,3.01492h18.39453v6.63184H392.0545v9.39844h8.9375v6.5166h-8.9375v9.74512h10.61035v6.63086
			h-18.39453V3.01492z"/>
		<path fill="#333333" d="M428.74786,41.93777h-7.72656V31.21218h-6.16992v10.72559h-7.72754V7.22488
			c0-2.47949,1.67285-4.20996,4.15234-4.20996h13.2627c2.47949,0,4.20898,1.73047,4.20898,4.20996V41.93777z M421.0213,24.75418
			V10.45339c0-0.57617-0.46191-0.92188-1.03809-0.92188h-4.15234c-0.57617,0-0.97949,0.40332-0.97949,0.92188v14.30078H421.0213z"/>
		<path fill="#333333" d="M452.9129,3.01492v6.63184h-6.34277v32.29102h-7.78516V9.64675h-6.34277V3.01492H452.9129z"/>
		<path fill="#333333" d="M473.97931,3.01492c2.70996,0,4.55469,1.90332,4.55469,4.61328v16.95312
			c0,2.36426-1.38379,4.09375-3.5166,4.49805l3.63281,12.8584h-7.66992l-3.51758-12.74317h-2.94043v12.74317h-7.78418V3.01492
			H473.97931z M470.86505,10.22293c0-0.28809-0.23047-0.57617-0.46094-0.57617h-5.88184v13.26269h5.88184
			c0.23047,0,0.46094-0.28906,0.46094-0.51953V10.22293z"/>
		<path fill="#333333" d="M483.59357,3.01492h18.39453v6.63184h-10.61035v9.39844h8.9375v6.5166h-8.9375v9.74512h10.61035v6.63086
			h-18.39453V3.01492z"/>
	</g>
	<g>
		<path fill="#333333" d="M139.36113,49.85769c1.77637,0,3.28906,1.46387,3.28906,3.28809v9.60059
			c0,1.84863-1.5127,3.3125-3.28906,3.3125h-8.71289V49.85769H139.36113z M138.49785,54.51394
			c0-0.69629-0.48047-1.17578-1.17676-1.17578H134.825v9.2168h2.49609c0.69629,0,1.17676-0.48047,1.17676-1.17676V54.51394z"/>
		<path fill="#333333" d="M159.45586,49.85769c1.12793,0,1.89648,0.76758,1.89648,1.89551v12.40918
			c0,1.12793-0.76855,1.89648-1.89648,1.89648h-8.32812c-1.12793,0-1.89648-0.76855-1.89648-1.89648V51.7532
			c0-1.12793,0.76855-1.89551,1.89648-1.89551H159.45586z M157.17558,53.62625c0-0.14453-0.11914-0.26465-0.26367-0.26465h-3.28809
			c-0.0957,0-0.21582,0.12012-0.21582,0.26465v8.71191c0,0.12012,0.12012,0.2168,0.21582,0.2168h3.28809
			c0.14453,0,0.26367-0.09668,0.26367-0.2168V53.62625z"/>
		<path fill="#333333" d="M185.57597,49.85769l-3.04883,16.20117h-3.67188l-2.49609-9.02441l-2.56836,9.02441h-3.60059
			l-3.07227-16.20117h4.08105l1.41602,10.17676l2.18359-10.17676h3.43262l2.06445,9.88867l1.53613-9.88867H185.57597z"/>
		<path fill="#333333" d="M195.37675,57.15457v8.90429h-3.83984V49.85769h3.83984l4.84863,8.92871v-8.92871h3.83984v16.20117
			h-3.95996L195.37675,57.15457z"/>
		<path fill="#333333" d="M221.56816,49.85769v3.50391h-3.67285v12.69726h-4.17578V53.3616h-3.67285v-3.50391H221.56816z"/>
		<path fill="#333333" d="M237.69316,49.85769c1.12793,0,1.89648,0.76758,1.89648,1.89551v12.40918
			c0,1.12793-0.76855,1.89648-1.89648,1.89648h-8.32812c-1.12793,0-1.89648-0.76855-1.89648-1.89648V51.7532
			c0-1.12793,0.76855-1.89551,1.89648-1.89551H237.69316z M235.41289,53.62625c0-0.14453-0.12012-0.26465-0.26367-0.26465h-3.28809
			c-0.0957,0-0.21582,0.12012-0.21582,0.26465v8.71191c0,0.12012,0.12012,0.2168,0.21582,0.2168h3.28809
			c0.14355,0,0.26367-0.09668,0.26367-0.2168V53.62625z"/>
		<path fill="#333333" d="M263.81329,49.85769l-3.04785,16.20117h-3.67285l-2.49611-9.02441l-2.56836,9.02441h-3.60059
			l-3.07227-16.20117h4.08105l1.41602,10.17676l2.18359-10.17676h3.43263l2.06445,9.88867l1.53613-9.88867H263.81329z"/>
		<path fill="#333333" d="M273.6131,57.15457v8.90429h-3.83984V49.85769h3.83984l4.84863,8.92871v-8.92871h3.83984v16.20117
			h-3.95996L273.6131,57.15457z"/>
		<path fill="#333333" d="M306.25372,49.85769c1.77637,0,3.28906,1.46387,3.28906,3.28809v9.60059
			c0,1.84863-1.5127,3.3125-3.28906,3.3125h-8.71289V49.85769H306.25372z M305.39044,54.51394
			c0-0.69629-0.48047-1.17578-1.17676-1.17578h-2.49609v9.2168h2.49609c0.69629,0,1.17676-0.48047,1.17676-1.17676V54.51394z"/>
		<path fill="#333333" d="M320.37189,49.85769v12.48047c0,0.12012,0.12012,0.2168,0.21582,0.2168h3.04883
			c0.14355,0,0.26367-0.09668,0.26367-0.2168V49.85769h4.17676v14.35254c0,1.05664-0.81641,1.84863-1.82422,1.84863h-8.20898
			c-0.98438,0-1.84863-0.79199-1.84863-1.84863V49.85769H320.37189z"/>
		<path fill="#333333" d="M344.98712,49.85769c0.9834,0,1.82422,0.79199,1.82422,1.82422v7.41602
			c0,0.98438-0.84082,1.82422-1.82422,1.82422H344.867l1.99219,5.13671h-4.08105l-2.01562-5.13671h-1.77637v5.13671h-4.17578
			V49.85769H344.98712z M342.659,53.57742c0-0.12012-0.12012-0.23926-0.2168-0.23926h-3.45605v4.32031h3.45605
			c0.09668,0,0.2168-0.12012,0.2168-0.2168V53.57742z"/>
		<path fill="#333333" d="M365.71759,66.05886h-4.17676v-6.43261h-3.95996v6.43261h-4.17676V49.85769h4.17676v6.19238h3.95996
			v-6.19238h4.17676V66.05886z"/>
		<path fill="#333333" d="M384.40704,66.05886h-4.17676v-4.03222h-3.67188v4.03222h-4.17676V51.7532
			c0-1.12793,0.76855-1.89551,1.89648-1.89551h8.23242c1.12793,0,1.89648,0.76758,1.89648,1.89551V66.05886z M380.23029,58.52176
			v-4.87207c0-0.28809-0.24023-0.47949-0.57617-0.47949h-2.5918c-0.28809,0-0.50391,0.21582-0.50391,0.47949v4.87207H380.23029z"/>
		<path fill="#333333" d="M394.91095,56.88992v9.16894h-3.84082V49.85769h4.22461l3.26465,7.56055l3-7.56055h4.41699v16.20117
			h-3.93652v-9.33691l-2.73633,6.43262h-1.63281L394.91095,56.88992z"/>
	</g>
</g>
</svg>
