<?xml version="1.0" encoding="utf-8"?>
<!-- Generator: Adobe Illustrator 22.0.1, SVG Export Plug-In . SVG Version: 6.00 Build 0)  -->
<svg version="1.1" id="ctd_logomark" xmlns="http://www.w3.org/2000/svg" xmlns:xlink="http://www.w3.org/1999/xlink" x="0px"
	 y="0px" width="144px" height="144px" viewBox="0 0 144 144" style="enable-background:new 0 0 144 144;" xml:space="preserve">
<style type="text/css">
	.st0{fill:#333333;}
</style>
<g>
	<g>
		
			<rect x="69.96763" y="-17.7099" transform="matrix(0.00248 -1 1 0.00248 52.30522 91.52635)" class="st0" width="4.12358" height="74.51104"/>
		
			<rect x="69.64952" y="-17.70086" transform="matrix(0.00248 -1 1 0.00248 45.79861 97.97704)" class="st0" width="4.7199" height="87.46644"/>
		<path class="st0" d="M25.71097,35.3913l-0.07972,34.49062l92.55453-0.0461l0.07951-34.36663l2.69591-3.00328l0.01593-1.74631
			l-97.95425-0.24286l0.04228,1.7306L25.71097,35.3913z M87.11501,43.71296l0.02351-0.00001l-0.00002-0.04394
			c0.01163-4.73928,3.86228-8.56941,8.59765-8.55778c5.30048,0.01303,8.63568,4.30058,8.62497,8.64464l-0.05456,21.97617
			l-17.2461-0.04263L87.11501,43.71296z M63.34468,43.65398l0.02071,0.00027l-0.00002-0.04422
			c0.01192-4.73928,3.86228-8.56941,8.60157-8.55778c5.29685,0.01332,8.63065,4.30058,8.61993,8.64437l-0.05455,21.97645
			l-17.24219-0.04263L63.34468,43.65398z M39.61186,43.59526l0.01932-0.00001c-0.00001-0.01567-0.00253-0.03107-0.00254-0.04394
			c0.01192-4.73957,3.86228-8.56969,8.60158-8.55778c5.29937,0.01304,8.63597,4.30058,8.62498,8.64437l-0.05428,21.97645
			l-17.2436-0.04292L39.61186,43.59526z"/>
	</g>
	<g>
		<path class="st0" d="M52.25256,108.11263v12.71619c0,3.39521-2.38356,5.77973-5.77974,5.77973H31.0839
			c-3.32364,0-5.70768-2.38452-5.70768-5.77973v-37.7143c0-3.46822,2.38404-5.85275,5.70768-5.85275h15.38893
			c3.39617,0,5.77974,2.38453,5.77974,5.85275v12.49905h-9.7533v-9.24796c0-0.43425-0.28918-0.79548-0.50534-0.79548h-6.21398
			c-0.36123,0-0.65041,0.36123-0.65041,0.79548v31.13908c0,0.43329,0.28918,0.72247,0.65041,0.72247h6.06891
			c0.36123,0,0.65041-0.28918,0.65041-0.72247v-9.39207H52.25256z"/>
		<path class="st0" d="M83.17452,77.55094v8.30837h-7.94809v40.46006h-9.7533V85.85931h-7.9481v-8.30837H83.17452z"/>
		<path class="st0" d="M110.0499,77.55094c4.55193,0,7.87508,3.32316,7.87508,7.87508v32.94621
			c0,4.62398-3.32316,7.94714-7.87508,7.94714H90.47029V77.55094H110.0499z M108.17168,87.88261
			c0-1.22878-0.79452-2.02329-2.02329-2.02329h-5.9248v32.1517h5.9248c1.22878,0,2.02329-0.86754,2.02329-2.02329V87.88261z"/>
	</g>
</g>
</svg>
