<?xml version="1.0" standalone="no"?>
<!DOCTYPE svg PUBLIC "-//W3C//DTD SVG 20010904//EN"
 "http://www.w3.org/TR/2001/REC-SVG-20010904/DTD/svg10.dtd">
<svg version="1.0" xmlns="http://www.w3.org/2000/svg"
 width="700.000000pt" height="700.000000pt" viewBox="0 0 700.000000 700.000000"
 preserveAspectRatio="xMidYMid meet">
<metadata>
Created by potrace 1.11, written by Peter Selinger 2001-2013
</metadata>
<g transform="translate(0.000000,700.000000) scale(0.100000,-0.100000)"
fill="#000000" stroke="none">
<path d="M1694 6151 c-2 -2 -4 -48 -4 -101 l0 -97 1258 -2 c691 -1 1506 -3
1810 -4 l552 -3 1 23 c0 13 1 50 1 83 0 33 -1 68 -1 78 -1 18 -50 19 -1258 21
-692 1 -1505 3 -1806 4 -302 1 -550 0 -553 -2z"/>
<path d="M1382 5850 c-10 -6 -10 -213 -1 -220 4 -3 585 -6 1291 -8 705 -2
1656 -4 2111 -6 566 -1 830 1 836 9 4 5 7 57 7 115 l-1 104 -1225 3 c-674 2
-1627 4 -2118 6 -491 1 -897 0 -900 -3z"/>
<path d="M1120 5475 c0 -37 7 -50 66 -119 l65 -77 -3 -837 -2 -837 2247 0
c1236 0 2247 2 2248 5 2 7 8 1060 9 1386 l0 280 65 72 c59 66 65 77 65 117 l0
44 -1092 1 c-601 1 -1672 3 -2380 5 l-1288 3 0 -43z m1360 -200 c69 -24 122
-59 169 -110 47 -51 97 -148 107 -210 5 -30 8 -840 4 -1113 l0 -32 -417 2
-418 3 0 530 c0 292 3 557 8 590 15 118 97 245 194 302 102 59 249 75 353 38z
m1155 -6 c92 -29 151 -74 209 -158 71 -104 70 -99 71 -734 l0 -567 -419 2
-420 3 1 395 c2 657 4 719 22 780 35 120 108 208 216 260 100 50 205 56 320
19z m1146 2 c72 -25 97 -39 145 -81 61 -53 93 -102 121 -181 28 -81 25 -2 24
-789 l-1 -415 -402 2 c-222 1 -411 2 -420 2 -15 1 -16 43 -13 564 3 649 2 635
91 758 95 130 302 194 455 140z"/>
<path d="M1459 3238 c-111 -19 -189 -92 -214 -202 -17 -71 -13 -1955 3 -2005
30 -90 106 -157 197 -176 76 -15 846 -12 901 3 50 15 114 59 144 102 46 64 50
101 50 454 l0 331 -232 -1 c-128 -1 -235 -2 -238 -3 -3 0 -5 -105 -4 -232 0
-172 -3 -235 -12 -244 -14 -14 -311 -19 -332 -6 -18 11 -18 1561 0 1573 22 14
326 10 335 -4 4 -7 8 -114 9 -238 1 -124 2 -228 3 -232 0 -5 107 -8 236 -8
l235 0 0 323 c0 381 -5 411 -80 488 -39 40 -78 63 -130 75 -44 10 -813 12
-871 2z"/>
<path d="M2796 3038 c1 -106 2 -197 3 -203 1 -6 71 -10 191 -9 l190 0 1 -30
c0 -17 1 -460 1 -983 l0 -953 238 0 237 0 1 953 c0 523 1 966 1 983 l1 30 186
0 c124 0 188 4 192 11 4 6 7 96 6 200 l-1 188 -624 3 -624 2 1 -192z"/>
<path d="M4399 3213 c-1 -23 -1 -2324 0 -2341 1 -10 104 -12 511 -12 564 1
565 1 662 68 68 47 127 130 144 202 4 19 9 42 11 50 6 21 5 1711 0 1735 -25
110 -66 178 -143 238 -97 74 -105 75 -676 76 -480 1 -508 1 -509 -16z m829
-416 l27 -27 0 -725 0 -725 -27 -27 -27 -27 -165 -1 -166 -2 0 778 c0 617 2
778 12 782 7 2 82 3 166 2 152 -1 153 -1 180 -28z"/>
</g>
</svg>
