<svg version="1.1" id="seating-chart-side" xmlns="http://www.w3.org/2000/svg" xmlns:xlink="http://www.w3.org/1999/xlink" x="0px" y="0px" width="315.13977px" height="157.49561px" viewBox="0 0 315.13977 157.49561" enable-background="new 0 0 315.13977 157.49561" xml:space="preserve" preserveAspectRatio="xMinYMin">
<g>
	<g>
		<rect x="273.15875" y="120.61108" fill="#333333" width="26.7627" height="18.34277"/>
		<path fill="#FFFFFF" d="M298.42188,122.11072v15.34296h-23.7627v-15.34296H298.42188 M301.42188,119.11072h-29.76266v21.34296
			h29.76266V119.11072L301.42188,119.11072z"/>
	</g>
	<g>
		<rect x="248.47223" y="124.61401" fill="#72BCAE" width="21.68652" height="18.34277"/>
		<path fill="#FFFFFF" d="M268.65921,126.11392v15.34293h-18.68726v-15.34293H268.65921 M271.65921,123.11392h-24.68726v21.34293
			h24.68726V123.11392L271.65921,123.11392z"/>
	</g>
	<g>
		<polygon fill="#F15940" points="79.21735,51.47534 79.21735,34.54272 99.21931,39.86157 99.21931,51.47534 		"/>
		<path fill="#FFFFFF" d="M80.71757,36.4934l17.00159,4.52124v8.96072H80.71757V36.4934 M77.71757,32.59134v20.38403h23.00159
			V38.70819L77.71757,32.59134L77.71757,32.59134z"/>
	</g>
	<g>
		<polygon fill="#D84E39" points="14.21735,51.47534 14.21735,15.05639 76.21735,33.70678 76.21735,51.47534 		"/>
		<path fill="#FFFFFF" d="M15.71757,17.07393l59,17.74776v15.15369h-59V17.07393 M12.71757,13.03871v39.93666h65V32.59134
			L12.71757,13.03871L12.71757,13.03871z"/>
	</g>
	<g>
		<polygon fill="#FDBB41" points="106.82575,93.14819 106.82575,76.21509 126.82771,81.53394 126.82771,93.14819 		"/>
		<path fill="#FFFFFF" d="M108.3259,78.1662l17.00159,4.52124v8.96069H108.3259V78.1662 M105.3259,74.26413v20.384h23.00158
			V80.38098L105.3259,74.26413L105.3259,74.26413z"/>
	</g>
	<g>
		<polygon fill="#E5A337" points="41.82575,93.14819 41.82575,56.72924 103.82575,75.37915 103.82575,93.14819 		"/>
		<path fill="#FFFFFF" d="M43.3259,58.7467l59,17.74778v15.15366h-59V58.7467 M40.3259,54.71148v39.93665h65v-20.384
			L40.3259,54.71148L40.3259,54.71148z"/>
	</g>
	<g>
		<rect x="196.7691" y="71.44995" fill="#CCCCCB" width="21.62988" height="15.97168"/>
		<path fill="#FFFFFF" d="M216.89917,72.95007V85.9213h-18.63013V72.95007H216.89917 M219.89917,69.95007h-24.63013V88.9213
			h24.63013V69.95007L219.89917,69.95007z"/>
	</g>
	<g>
		<rect x="246.02887" y="81.45776" fill="#CCCCCB" width="21.63086" height="15.97168"/>
		<path fill="#FFFFFF" d="M266.15936,82.95807v12.97122H247.5293V82.95807H266.15936 M269.15936,79.95807H244.5293v18.97122
			h24.63007V79.95807L269.15936,79.95807z"/>
	</g>
	<g>
		<rect x="221.39899" y="76.45386" fill="#CCCCCB" width="21.62988" height="15.97168"/>
		<path fill="#FFFFFF" d="M241.5293,77.95407v12.97122h-18.63013V77.95407H241.5293 M244.5293,74.95407h-24.63013v18.97122h24.63013
			V74.95407L244.5293,74.95407z"/>
	</g>
	<g>
		<g>
			<polygon fill="#2A9983" points="15.21833,142.95679 15.21833,102.11597 128.84528,114.13159 128.84528,142.95679 			"/>
			<path fill="#FFFFFF" d="M16.71833,103.78284l110.62683,11.69882v25.97522H16.71833V103.78284 M13.71833,100.44885v44.00803
				h116.62682V112.7822L13.71833,100.44885L13.71833,100.44885z"/>
		</g>
		<g>
			<polygon fill="#35AF98" points="131.84528,142.95679 131.84528,114.42065 245.47223,124.48706 245.47223,142.95679 			"/>
			<path fill="#FFFFFF" d="M133.34515,116.05972l110.62677,9.8002v15.59695H133.34515V116.05972 M130.34515,112.7822v31.67468
				h116.62677v-21.34296L130.34515,112.7822L130.34515,112.7822z"/>
		</g>
	</g>
</g>
</svg>
