<svg version="1.1" id="seating-chart-topdown" xmlns="http://www.w3.org/2000/svg" xmlns:xlink="http://www.w3.org/1999/xlink" x="0px" y="0px" width="297.99704px" height="320.67276px" viewBox="0 0 297.99704 320.67276" enable-background="new 0 0 297.99704 320.67276" xml:space="preserve" preserveAspectRatio="xMinYMin">
<g>
	<g>
		<g>
			<path fill="#2A9983" d="M146.18489,287.15015c-18.93603,0-45.22167-4.04004-55.64404-5.77637
				c-1.44775-0.24121-2.47314-1.57812-2.33545-3.04395l9.11865-96.88869c0.13721-1.45703,1.33936-2.55566,2.79541-2.55566
				l0.12695,0.00293c16.46973,0.72656,34.28075,1.0957,52.93847,1.0957c15.42383,0,30.11621-0.24023,43.66992-0.71387
				l0.10059-0.00195c1.45703,0,2.65918,1.09863,2.7959,2.55566l9.1123,96.81056c0.14062,1.50488-0.91895,2.84766-2.41211,3.05664
				C194.69466,283.33276,165.28645,287.15015,146.18489,287.15015z"/>
			<path fill="#FFFFFF" d="M100.11974,180.38554l0.06097,0.00134c16.4808,0.72794,34.31396,1.09702,53.00402,1.09702
				c15.45764,0,30.16797-0.24042,43.77075-0.71545c0.67844,0,1.23837,0.51401,1.30255,1.19565l9.11154,96.81096
				c0.06631,0.70465-0.42801,1.33286-1.12537,1.43018c-11.73059,1.63727-41.06534,5.44531-60.05948,5.44531
				c-18.82345,0-45.01168-4.02548-55.39736-5.75623c-0.67493-0.11243-1.15302-0.7381-1.08841-1.42435l9.11887-96.88869
				c0.06418-0.6817,0.62384-1.19574,1.30188-1.19574H100.11974 M100.11974,177.38554
				c-2.21536-0.00003-4.0791,1.68762-4.2887,3.91458l-9.1189,96.88872c-0.21234,2.2561,1.34683,4.29221,3.58209,4.6647
				c9.97427,1.66214,36.71426,5.797,55.8905,5.797c19.39075,0,49.58978-3.95496,60.47415-5.47409
				c2.28799-0.31934,3.91394-2.38251,3.69748-4.6825l-9.11154-96.81099c-0.20941-2.22528-2.07129-3.91452-4.28934-3.91452
				c-0.05096,0-0.10196,0.00089-0.15329,0.00269c-12.71512,0.44482-27.18436,0.71277-43.61746,0.71277
				c-20.13348,0-37.68121-0.42316-52.87167-1.09409C100.24837,177.38695,100.18389,177.38554,100.11974,177.38554
				L100.11974,177.38554z"/>
		</g>
		<g>
			<path fill="#2A9983" d="M83.54574,268.53882c-0.11133,0-0.22461-0.00684-0.33838-0.01953
				c-17.28174-2.0332-51.24121-8.42383-61.2373-10.33496c-1.32422-0.25293-2.28516-1.41699-2.28516-2.76857v-15.1543
				c0-2.01367,0.32275-4.00293,0.95898-5.91211l19.38916-58.16699c0.38477-1.1543,1.45605-1.92969,2.66602-1.92969
				c0.11914,0,0.23975,0.00781,0.36035,0.02344c14.12061,1.81738,30.46436,3.22852,48.57617,4.19336
				c0.77637,0.04102,1.48438,0.38867,1.99316,0.97852c0.50586,0.58594,0.74463,1.33203,0.67236,2.10059l-7.94678,84.43459
				c-0.13721,1.45703-1.34473,2.55566-2.80811,2.55566C83.54623,268.53882,83.54623,268.53882,83.54574,268.53882z"/>
			<path fill="#FFFFFF" d="M42.69787,175.75261c0.05594,0,0.11285,0.00369,0.16919,0.01093
				c14.15594,1.82239,30.53717,3.23669,48.6886,4.2037c0.49249,0.02621,0.79858,0.29965,0.93716,0.4603
				c0.13705,0.15887,0.36023,0.49753,0.31476,0.98065l-7.94669,84.43471c-0.06415,0.68176-0.62964,1.19592-1.31537,1.19592
				c-0.0538,0-0.10825-0.00323-0.16293-0.00967c-17.24054-2.02795-51.14914-8.41003-61.13107-10.31778
				c-0.61813-0.1181-1.06677-0.66296-1.06677-1.29552v-15.15457c0-1.85159,0.29691-3.68118,0.88245-5.4379l19.38904-58.16724
				C41.63638,176.11571,42.13534,175.75261,42.69787,175.75261 M42.69787,172.75261c-1.83484,0-3.49442,1.17496-4.08771,2.95486
				l-19.38901,58.16724c-0.68643,2.05933-1.03641,4.21585-1.03641,6.38657v15.15457c0,2.07295,1.46759,3.8531,3.50366,4.2422
				c10.83811,2.07135,44.12326,8.32495,61.34372,10.35056c0.17245,0.02029,0.34399,0.03021,0.5134,0.03021
				c2.20084,0,4.09079-1.66876,4.30219-3.91486l7.94666-84.43468c0.22998-2.44354-1.62827-4.58725-4.07913-4.7178
				c-20.93051-1.11505-36.87253-2.69101-48.46515-4.18338C43.06487,172.76427,42.88049,172.75261,42.69787,172.75261
				L42.69787,172.75261z"/>
		</g>
		<g>
			<path fill="#2A9983" d="M213.5345,269.03882c-1.45996,0-2.66504-1.09863-2.80176-2.55664l-7.9502-84.47072
				c-0.07324-0.77637,0.16797-1.52734,0.67871-2.11426c0.5127-0.58887,1.22656-0.93164,2.00879-0.96582
				c17.93555-0.78711,39.15332-2.86426,47.44336-3.7207c0.09863-0.01074,0.19531-0.01562,0.29199-0.01562
				c1.15332,0,2.20801,0.72754,2.62305,1.81055l19.98634,52.08105c1.57227,4.09766,2.37012,8.40039,2.37012,12.78906v14.11133
				c0,1.38576-0.99219,2.55568-2.35938,2.78224l-61.82521,10.23145C213.84407,269.02612,213.6888,269.03882,213.5345,269.03882
				L213.5345,269.03882z"/>
			<path fill="#FFFFFF" d="M253.20451,176.69514c0.53735,0,1.02911,0.3407,1.22372,0.84784l19.98653,52.08157
				c1.50629,3.92514,2.27002,8.04697,2.27002,12.25101v14.11111c0,0.6487-0.46454,1.1964-1.10455,1.30229l-61.82466,10.23105
				c-0.07428,0.0123-0.14899,0.01852-0.22211,0.01852c-0.67001,0-1.24438-0.52585-1.30756-1.19714l-7.9502-84.47044
				c-0.04614-0.49033,0.17889-0.82983,0.31717-0.98856c0.13913-0.1597,0.44659-0.43088,0.94299-0.45267
				c17.96289-0.78796,39.224-2.86923,47.53125-3.72748C253.1132,176.69749,253.15898,176.69514,253.20451,176.69514
				 M253.20451,173.69511c-0.14767,0-0.2962,0.00757-0.44568,0.02301c-8.0433,0.83099-29.39246,2.92657-47.35443,3.71448
				c-2.47141,0.10843-4.34726,2.25653-4.11548,4.71945l7.95016,84.47047c0.21201,2.25235,2.10852,3.91602,4.29437,3.91602
				c0.23462,0,0.47238-0.01913,0.71191-0.05878l61.82466-10.23105c2.08533-0.34509,3.61475-2.14838,3.61475-4.26204v-14.11111
				c0-4.55566-0.83698-9.07257-2.46918-13.32584l-19.98651-52.0816C256.58347,174.78575,254.97536,173.69511,253.20451,173.69511
				L253.20451,173.69511z"/>
		</g>
		<g>
			<path fill="#35AF98" d="M153.18489,176.98412c-18.46533,0-36.08642-0.36133-52.37353-1.07422
				c-0.77637-0.0332-1.48535-0.375-1.99512-0.96094c-0.5127-0.58789-0.75488-1.3418-0.68115-2.12109l10.22852-108.68163
				c0.13672-1.45312,1.3457-2.54834,2.8125-2.54834c0.07471,0,0.1499,0.00293,0.2251,0.00879
				c13.32959,1.03369,26.70702,1.55811,39.76025,1.55811c11.55078,0,23.16797-0.41064,34.52734-1.22021
				c0.07031-0.00488,0.13965-0.00732,0.20801-0.00732c1.46582,0,2.6748,1.0957,2.81152,2.54834l10.23242,108.72118
				c0.07324,0.78418-0.17188,1.54199-0.69043,2.13184c-0.51562,0.58594-1.23047,0.92383-2.01172,0.95117
				C182.88802,176.75072,168.40266,176.98412,153.18489,176.98412z"/>
			<path fill="#FFFFFF" d="M111.17596,63.09805c0.03625,0,0.07278,0.00142,0.10965,0.00429
				c13.36688,1.03671,26.78204,1.56239,39.87289,1.56239c11.5874,0,23.24109-0.4118,34.63733-1.22398
				c0.034-0.00241,0.06769-0.00363,0.10104-0.00363c0.68735,0.00005,1.25375,0.51114,1.31754,1.18883l10.23257,108.72103
				c0.04684,0.49774-0.18228,0.84061-0.32303,1.00067c-0.1391,0.1582-0.4458,0.42609-0.93704,0.44302
				c-13.33972,0.45999-27.80774,0.69324-43.00217,0.69324c-18.43942,0-36.03823-0.36075-52.30764-1.0722
				c-0.4884-0.02136-0.79208-0.28949-0.92966-0.44739c-0.1391-0.1597-0.36551-0.5014-0.31897-0.99594l10.22885-108.68168
				C109.9211,63.60905,110.488,63.09805,111.17596,63.09805 M111.17599,60.09806c-2.21066,0-4.09488,1.67017-4.30545,3.90749
				L96.64165,172.68727c-0.23154,2.46017,1.63571,4.61362,4.1044,4.72156c15.09064,0.65991,32.49621,1.07507,52.43868,1.07507
				c16.21298,0,30.51437-0.26083,43.10556-0.69501c2.48502-0.08566,4.37646-2.24747,4.14349-4.72302L190.20122,64.34484
				c-0.21051-2.23672-2.09158-3.90759-4.30417-3.90773c-0.10422,0-0.20892,0.00371-0.31448,0.01123
				c-11.37854,0.81091-22.85287,1.21638-34.42407,1.21638c-13.08194,0-26.28878-0.51782-39.64089-1.55341
				C111.40304,60.10242,111.28902,60.09806,111.17599,60.09806L111.17599,60.09806z"/>
		</g>
		<g>
			<path fill="#35AF98" d="M92.13265,175.47044c-39.06689-2.25684-60.18408-5.66016-69.29492-7.48828
				c-0.75635-0.15234-1.40234-0.59277-1.81787-1.24121c-0.41602-0.64844-0.54785-1.41895-0.37012-2.1709l8.51611-35.35059
				c0.83643-3.47216,2.18262-6.79101,4.00196-9.86376l36.04248-60.88672c0.50195-0.84814,1.42969-1.375,2.42188-1.375
				c0.13965,0,0.28076,0.01025,0.42236,0.03125c10.27051,1.53662,20.62109,2.79736,30.76416,3.74707
				c0.75391,0.07031,1.43457,0.42773,1.91602,1.00635c0.48047,0.57715,0.70605,1.30811,0.63574,2.05811L95.11361,172.91869
				c-0.1377,1.45703-1.34766,2.55566-2.81494,2.55566L92.13265,175.47044z"/>
			<path fill="#FFFFFF" d="M71.6318,58.59379c0.06659,0,0.13406,0.00505,0.20056,0.015
				c10.29755,1.54059,20.67572,2.8045,30.84628,3.75664c0.48087,0.04503,0.77216,0.31546,0.90295,0.47264
				c0.12936,0.15543,0.33975,0.48662,0.29538,0.95816L93.61983,172.77806c-0.06317,0.67114-0.64331,1.1969-1.32074,1.1969
				l-0.07993-0.00232c-38.98486-2.25189-60.01813-5.64139-69.08603-7.46143c-0.47812-0.09595-0.73825-0.40445-0.85077-0.5798
				c-0.11279-0.17572-0.28519-0.5416-0.17612-1.00397l8.51749-35.35654c0.80142-3.32677,2.09162-6.50668,3.83472-9.45135
				l36.04221-60.88675C70.73397,58.83871,71.16741,58.59385,71.6318,58.59379 M71.63174,55.59379
				c-1.50818,0.00006-2.92871,0.78648-3.71268,2.11082l-36.04218,60.88678c-1.89368,3.19901-3.29907,6.66284-4.16971,10.27691
				l-8.51749,35.35654c-0.56143,2.37952,0.95612,4.74664,3.35312,5.22772c8.42029,1.69003,29.70215,5.21603,69.50336,7.51508
				c0.08478,0.00491,0.16904,0.00732,0.25293,0.00732c2.21417,0,4.0975-1.68457,4.30753-3.91574l10.25714-108.98188
				c0.224-2.37988-1.52551-4.47604-3.90549-4.69884c-10.14307-0.94957-20.36819-2.19366-30.68204-3.73669
				C72.06063,55.60955,71.84539,55.59379,71.63174,55.59379L71.63174,55.59379z"/>
		</g>
		<g>
			<path fill="#35AF98" d="M204.78548,175.95482c-1.46777,0-2.67676-1.09863-2.81348-2.55469L191.7054,64.32348
				c-0.07031-0.74854,0.15625-1.47949,0.63672-2.05713c0.48633-0.58447,1.17383-0.94385,1.93652-1.01172
				c10.24805-0.91699,20.54004-2.17773,30.5918-3.74805c0.14746-0.02295,0.2959-0.03418,0.44141-0.03418
				c0.99805,0,1.92773,0.53174,2.42871,1.38818l34.51173,59.26953c2.11621,3.63525,3.7627,7.53076,4.89355,11.57812l1.13477,4.06445
				c2.78418,9.96582,6.76172,24.20703,8.7334,31.28369c0.20996,0.75391,0.10449,1.53613-0.29688,2.2041
				c-0.4043,0.6709-1.0498,1.13281-1.81836,1.30176c-4.30273,0.94238-11.10059,2.2832-19.05275,3.32227
				c-14.14062,1.84668-31.27734,3.21484-50.93457,4.06738L204.78548,175.95482z"/>
			<path fill="#FFFFFF" d="M225.3123,58.97228c0.46622,0,0.9006,0.24759,1.13083,0.64128l34.51222,59.27119
				c2.05255,3.52502,3.64917,7.30231,4.74548,11.22686c2.71228,9.70908,7.60754,27.2356,9.8688,35.3479
				c0.13235,0.47479-0.02969,0.84784-0.13803,1.02795c-0.10938,0.18173-0.36566,0.50259-0.85339,0.60941
				c-4.27502,0.93622-11.02869,2.26871-18.92604,3.29996c-14.09589,1.8407-31.18918,3.20575-50.80539,4.05725l-0.05994,0.00131
				c-0.67795,0-1.25845-0.52579-1.32162-1.19702L193.19923,64.18319c-0.04425-0.47021,0.16635-0.80151,0.29581-0.95712
				c0.13281-0.15967,0.42853-0.43405,0.91684-0.47774c10.28189-0.91962,20.60754-2.18454,30.69043-3.75966
				C225.17192,58.97781,225.24254,58.97228,225.3123,58.97228 M225.3123,55.97228c-0.22308,0-0.44791,0.01718-0.67319,0.05237
				c-10.09576,1.57713-20.25888,2.82013-30.49448,3.73561c-2.39023,0.21379-4.15704,2.3148-3.93219,4.70401l10.26596,109.0752
				c0.20972,2.22842,2.09042,3.91592,4.30844,3.91592c0.0632,0,0.12662-0.00137,0.19034-0.00415
				c22.85226-0.99197,39.42737-2.56018,51.06346-4.07965h-0.00012c8.06802-1.05353,14.95773-2.41962,19.17947-3.34418
				c2.42584-0.53125,3.90631-2.98129,3.2395-5.37344c-2.26141-8.11267-7.15692-25.63998-9.86926-35.34949
				c-1.16681-4.17687-2.86011-8.18151-5.04236-11.92928L229.03566,58.104C228.25362,56.76665,226.8282,55.97228,225.3123,55.97228
				L225.3123,55.97228z"/>
		</g>
		<g>
			<path fill="#333333" d="M84.69173,35.48217c-1.32617,0-2.48682-0.94141-2.75977-2.23877l-3.51416-16.69336
				c-0.17578-0.83545,0.03174-1.69482,0.56982-2.35742c0.5376-0.66309,1.33594-1.04346,2.18945-1.04346h135.21289
				c0.86816,0,1.67383,0.39014,2.21289,1.0708c0.53711,0.68018,0.73145,1.55469,0.53125,2.39893l-3.9541,16.69336
				c-0.30176,1.27783-1.42969,2.16992-2.74316,2.16992H84.69173z"/>
			<path fill="#FFFFFF" d="M216.39027,14.64898c0.556,0,0.88733,0.31403,1.03537,0.50124
				c0.14801,0.18716,0.37723,0.58197,0.24905,1.123l-3.95386,16.6933c-0.14169,0.5981-0.66986,1.01579-1.28445,1.01579H84.69155
				c-0.62061,0-1.16382-0.44077-1.29169-1.04807l-3.5144-16.69333c-0.1127-0.53539,0.11871-0.92125,0.26666-1.10362
				c0.14798-0.18236,0.47794-0.48831,1.02505-0.48831H216.39027 M216.39027,11.64898H81.17718
				c-2.74396,0-4.79263,2.52489-4.22736,5.20996l3.5144,16.69331c0.42084,1.99905,2.18445,3.43005,4.22733,3.43005h127.74483
				c2.00229,0,3.74219-1.37592,4.20367-3.32434l3.95389-16.69333C221.23662,14.25134,219.17863,11.64898,216.39027,11.64898
				L216.39027,11.64898z"/>
		</g>
		<g>
			<path fill="#72BCAE" d="M151.15852,60.17113c-24.42333,0-49.70751-1.8501-75.15038-5.49854
				c-0.95703-0.13721-1.74512-0.71436-2.16162-1.5835c-0.41309-0.86133-0.37061-1.82715,0.11621-2.6499l6.2583-10.57178
				c0.50488-0.85303,1.43506-1.3833,2.42676-1.3833h131.55859c0.99805,0,1.93066,0.53516,2.43457,1.39648l6.40918,10.95996
				c0.47949,0.82031,0.51953,1.78223,0.10938,2.63916c-0.41406,0.86328-1.19629,1.43896-2.14551,1.58008
				c-22.80371,3.3916-46.30664,5.11133-69.84961,5.11133C151.16145,60.17113,151.16145,60.17113,151.15852,60.17113z"/>
			<path fill="#FFFFFF" d="M214.20659,39.98391c0.46707,0,0.90369,0.25044,1.13947,0.65366l6.40945,10.96011
				c0.30716,0.52521,0.16376,0.99844,0.05093,1.23376c-0.11456,0.23907-0.39853,0.65376-1.01266,0.74507
				c-22.73242,3.38058-46.16095,5.09467-69.63483,5.09467c-24.35098,0-49.56374-1.84485-74.93798-5.48332
				c-0.62024-0.08893-0.90652-0.50635-1.02197-0.74724c-0.11325-0.23627-0.25671-0.71111,0.05453-1.23694l6.25824-10.57216
				c0.23645-0.39946,0.67172-0.64761,1.13589-0.64761H214.20659 M214.20659,36.98391H82.64767
				c-1.52661,0-2.93985,0.80571-3.7175,2.11943l-6.25824,10.57214c-1.57172,2.65514,0.06897,6.04405,3.1232,6.48201
				c25.63312,3.67557,50.72968,5.51367,75.36382,5.51367c23.75986,0,47.08917-1.70888,70.07614-5.12727
				c3.03226-0.45096,4.65765-3.81432,3.11011-6.46063l-6.40945-10.96014C217.16096,37.79826,215.74141,36.98391,214.20659,36.98391
				L214.20659,36.98391z"/>
		</g>
		<g>
			<path fill="#CCCCCB" d="M253.58723,115.90551c-2.02832,0-3.87793-1.02783-4.94727-2.74902l-8.4668-13.62598
				c-0.82129-1.3208-1.07812-2.88232-0.72363-4.39746c0.02539-0.10938,0.05371-0.21777,0.08594-0.3252
				c-1.6123-0.30664-3.05371-1.28906-3.91309-2.71533l-7.94727-13.19189c-0.87988-1.46094-1.03711-3.1665-0.57617-4.69141
				c-1.59863-0.31299-3.02832-1.29248-3.88184-2.70947l-8.87402-14.73096c-1.6377-2.7207-0.77246-6.28955,1.93066-7.95654
				l9.4209-5.8125c0.9209-0.56787,1.97559-0.86768,3.05273-0.86768c2.04395,0,3.90137,1.04053,4.96777,2.78271l8.97656,14.66748
				c0.8916,1.45752,1.0625,3.15869,0.61328,4.68408c1.61035,0.2959,3.02051,1.25342,3.89648,2.68555l8.03809,13.13428
				c0.88185,1.43994,1.05666,3.12842,0.62012,4.64648c1.6006,0.2832,3.01271,1.2207,3.89845,2.62695l8.59277,13.62891
				c0.83887,1.3291,1.10254,2.9043,0.74316,4.43457s-1.2959,2.82324-2.63867,3.64062l-9.8457,5.99268
				c-0.9131,0.55566-1.95802,0.84912-3.0215,0.84912H253.58723z M42.4642,115.90551c-1.06445,0-2.10938-0.29346-3.02148-0.84912
				l-9.84522-5.99268c-1.34326-0.81738-2.28027-2.11035-2.63965-3.64111c-0.35938-1.53027-0.0957-3.10498,0.74316-4.43457
				l8.59278-13.62842c0.88721-1.40674,2.30029-2.34473,3.90087-2.62744c-0.44238-1.51953-0.26611-3.20264,0.61768-4.646
				l8.03809-13.13477c0.87646-1.43164,2.28711-2.38965,3.89697-2.68506c-0.44922-1.52539-0.27832-3.22705,0.61328-4.68408
				l8.97656-14.66748c1.06592-1.74219,2.92334-2.78271,4.96777-2.78271c1.07666,0,2.13184,0.2998,3.05176,0.86768l9.42236,5.81299
				c2.70264,1.66699,3.56787,5.23633,1.9292,7.95605L72.8348,71.49975c-0.85547,1.41943-2.2876,2.3999-3.89014,2.71143
				c0.46876,1.52881,0.31007,3.23096-0.56786,4.68945l-7.94678,13.19141c-0.85889,1.42627-2.30127,2.40918-3.91309,2.71582
				c0.03125,0.10742,0.06006,0.21582,0.08594,0.32568c0.354,1.51465,0.09717,3.07617-0.72412,4.39746l-8.4668,13.62549
				C46.34212,114.87817,44.49252,115.90551,42.4642,115.90551z"/>
			<path fill="#FFFFFF" d="M228.74696,43.63224c1.45392,0,2.87399,0.73405,3.68887,2.06554l8.97656,14.66754
				c1.24225,2.02985,0.60886,4.68214-1.4166,5.93169l-9.52496,5.87608c-0.70721,0.43629-1.49042,0.644-2.26395,0.644
				c-1.46402,0-2.8931-0.74428-3.70465-2.09151l-8.87387-14.73088c-1.22192-2.02843-0.58307-4.66246,1.43231-5.90576
				l9.42227-5.81273C227.19005,43.83997,227.97319,43.63224,228.74696,43.63224 M67.30526,43.63224
				c0.77365,0,1.55704,0.20781,2.26401,0.64397l9.42227,5.81273c2.01538,1.2433,2.65417,3.87733,1.43228,5.90576l-8.87381,14.73088
				c-0.81165,1.34735-2.24051,2.09151-3.70468,2.09151c-0.77341,0-1.55688-0.20778-2.26398-0.644L56.05639,66.297
				c-2.02542-1.24954-2.65881-3.90184-1.41653-5.93169l8.9765-14.66754C64.43133,44.36617,65.85122,43.63224,67.30526,43.63224
				 M242.23363,65.66923c1.45407-0.00003,2.8739,0.73392,3.68884,2.06555l8.0383,13.13441
				c1.24054,2.02704,0.61075,4.6747-1.40793,5.92638l-6.24792,3.85448l-3.42926,2.11557
				c-0.70709,0.43623-1.49054,0.644-2.26395,0.644c-1.46417,0-2.89307-0.74417-3.70471-2.09149l-7.94632-13.19119
				c-1.22186-2.02846-0.58304-4.66251,1.43231-5.90581l9.5766-5.90793C240.67656,65.87705,241.45998,65.66924,242.23363,65.66923
				 M53.8186,65.66923c0.77365,0,1.55707,0.20782,2.26404,0.64397l9.57657,5.90793c2.01538,1.2433,2.65417,3.87735,1.43228,5.90581
				l-7.94626,13.19119c-0.81165,1.34732-2.24054,2.09149-3.70471,2.09149c-0.77341,0-1.55682-0.20776-2.26392-0.644
				l-6.54431-4.03729l-3.1329-1.93274c-2.01865-1.25168-2.64847-3.89935-1.4079-5.92639l8.03827-13.13441
				C50.94469,66.40314,52.36456,65.66923,53.8186,65.66923 M254.83116,86.14295c1.43477,0,2.83742,0.71466,3.65825,2.01648
				l8.59338,13.62892c1.28674,2.04073,0.65271,4.73985-1.40808,5.99423l-9.84486,5.99252
				c-0.70145,0.42697-1.47647,0.63049-2.24222,0.63049c-1.44461,0-2.85562-0.7247-3.67325-2.04051l-8.46707-13.62596
				c-1.26212-2.03111-0.63409-4.70116,1.40112-5.9567l3.45648-2.13239l6.23932-3.84915
				c0.00284-0.00175,0.00577-0.00357,0.00861-0.00533l0.01413-0.00871C253.27367,86.35088,254.05702,86.14295,254.83116,86.14295
				 M41.22106,86.14295c0.77402,0,1.55759,0.20801,2.26419,0.64391l0.01413,0.00873
				c0.00284,0.00175,0.00574,0.00356,0.00858,0.00531l3.12433,1.92743l6.5715,4.05411
				c2.03522,1.25554,2.66327,3.92558,1.40109,5.9567l-8.46704,13.62596c-0.81772,1.31593-2.22852,2.04051-3.67325,2.04051
				c-0.76559,0-1.54089-0.20358-2.24219-0.63049l-9.84491-5.99252c-2.06079-1.25438-2.69482-3.95351-1.40805-5.99423
				l8.59339-13.62892C38.38372,86.85749,39.78616,86.14295,41.22106,86.14295 M228.74696,40.63224
				c-1.35495,0-2.68253,0.3772-3.8392,1.09077l-9.42218,5.81268c-3.39905,2.09689-4.48776,6.58604-2.42697,10.00703
				l8.87384,14.73085c0.81003,1.34471,2.0318,2.3761,3.44669,2.97067c-0.13779,1.49939,0.18115,3.05171,1.01178,4.43063
				l7.94632,13.19124c0.81699,1.3562,2.0528,2.39371,3.48306,2.98582c-0.13324,1.56049,0.23706,3.11578,1.07889,4.47055
				l8.46707,13.62598c1.34512,2.16473,3.6709,3.45709,6.22141,3.45709c1.3396,0,2.65434-0.36926,3.80205-1.06787l9.84482-5.99254
				c1.68884-1.02795,2.86792-2.65408,3.32007-4.57881c0.45209-1.92468,0.12036-3.90569-0.93414-5.57811l-8.59338-13.62889
				c-0.83881-1.33035-2.05194-2.32739-3.45798-2.89113c0.11389-1.48117-0.21909-3.00819-1.04947-4.36502l-8.03831-13.13443
				c-0.83185-1.35927-2.0463-2.37872-3.46228-2.95695c0.12372-1.49512-0.20786-3.04004-1.04779-4.41251l-8.97653-14.66753
				C233.65355,41.94047,231.31795,40.63224,228.74696,40.63224L228.74696,40.63224z M67.30523,40.63224
				c-2.57095,0-4.90652,1.3082-6.24768,3.49947l-8.97653,14.6676c-0.83994,1.37245-1.17148,2.9174-1.04779,4.41254
				c-1.41602,0.57822-2.63043,1.59764-3.46228,2.95689L39.53262,79.3032c-0.83063,1.35722-1.1636,2.88431-1.05032,4.36536
				c-1.40567,0.56378-2.61847,1.56067-3.45712,2.89079l-8.59339,13.62892c-1.0545,1.67239-1.38629,3.6534-0.93417,5.57808
				c0.45212,1.92473,1.6312,3.55086,3.3201,4.57886l9.84485,5.99249c1.14767,0.69861,2.4624,1.06787,3.80203,1.06787
				c2.55045,0,4.87622-1.29236,6.22137-3.45709l8.46704-13.62598c0.84186-1.35474,1.21216-2.91005,1.07892-4.47057
				c1.43027-0.5921,2.66605-1.62958,3.48303-2.98573l7.94629-13.19127c0.83063-1.37894,1.1496-2.93127,1.01181-4.43068
				c1.41489-0.59457,2.63669-1.62596,3.44672-2.97067l8.87381-14.73088c2.06076-3.42104,0.97205-7.91016-2.42691-10.007
				l-9.42227-5.81273C69.98782,41.00944,68.66024,40.63224,67.30523,40.63224L67.30523,40.63224z"/>
		</g>
		<g>
			<path fill="#CCCCCB" d="M253.58821,112.90551c-0.98438,0-1.88184-0.49805-2.39941-1.33203L242.722,97.9475
				c-0.39844-0.64062-0.52344-1.39697-0.35156-2.13086s0.61914-1.35693,1.25879-1.75391l9.70215-5.98486
				c0.47656-0.29199,0.98438-0.43506,1.5-0.43506c0.97656,0,1.86916,0.49219,2.38966,1.31641l8.59277,13.62891
				c0.40625,0.64453,0.53418,1.40771,0.36035,2.14941c-0.1748,0.74121-0.62891,1.36768-1.2793,1.76367l-9.84572,5.99268
				C254.60677,112.76342,254.10188,112.90551,253.58821,112.90551L253.58821,112.90551z M42.4642,112.90551
				c-0.51367,0-1.01954-0.14258-1.46191-0.41162l-9.84522-5.99268c-0.65039-0.396-1.10449-1.02246-1.27881-1.76416
				s-0.04639-1.50439,0.35986-2.14844l8.59375-13.62939c0.51953-0.82422,1.4126-1.31641,2.38916-1.31641
				c0.52002,0,1.03076,0.14551,1.47656,0.42041l1.6582-2.50195c-1.37891-0.85059-1.79395-2.5874-0.98486-3.90869l8.03809-13.13477
				c0.51709-0.84473,1.41748-1.34863,2.40967-1.34863c0.51221,0,1.01611,0.1416,1.45752,0.40869
				c0.24316,0.14746,0.51123,0.21777,0.77588,0.21777c0.50537,0,0.99805-0.25537,1.28076-0.71729
				c0.43115-0.70459,0.21191-1.625-0.49072-2.05908c-1.31689-0.81396-1.73096-2.55029-0.92285-3.87061l8.97656-14.66748
				c0.51709-0.84473,1.41748-1.34912,2.40918-1.34912c0.52002,0,1.03076,0.14551,1.47656,0.42041l9.42236,5.81299
				c1.30957,0.80811,1.729,2.5376,0.93506,3.85547L70.26498,69.9519c-0.51514,0.85449-1.41943,1.36523-2.41943,1.36523l0,0
				c-0.51709,0-1.0249-0.14404-1.46875-0.41602c-0.24463-0.1499-0.51514-0.22119-0.78271-0.22119
				c-0.50391,0-0.99561,0.25391-1.27881,0.71484c-0.43359,0.70459-0.21436,1.62744,0.49023,2.06201
				c1.37549,0.84863,1.79492,2.57812,1.00098,3.896l-7.9458,13.19141c-0.51514,0.85498-1.41992,1.36523-2.41992,1.36523
				c0,0,0,0-0.00049,0c-0.50977,0-1.01172-0.14014-1.45166-0.40527c-0.24219-0.146-0.50977-0.21582-0.77344-0.21582
				c-0.50537,0-0.99805,0.25537-1.28076,0.71729c-0.43066,0.70361-0.2124,1.62256,0.48877,2.05762
				c0.63965,0.39697,1.08691,1.02002,1.2583,1.75342c0.17188,0.73389,0.04736,1.49072-0.35059,2.13037l-8.4668,13.62646
				C44.34554,112.40746,43.44808,112.90551,42.4642,112.90551z M240.61165,91.90942c-1,0-1.90527-0.51025-2.41992-1.36572
				l-7.94629-13.19092c-0.79395-1.31787-0.37402-3.04736,0.93555-3.85547l9.57617-5.90723
				c0.44629-0.27539,0.95703-0.4209,1.47656-0.4209c0.99219,0,1.89258,0.50391,2.40918,1.34814l8.03809,13.13525
				c0.80078,1.30762,0.39746,3.0376-0.89844,3.85596l-9.72168,5.99756C241.62434,91.76928,241.12141,91.90942,240.61165,91.90942z
				 M228.20735,71.31713c-1.00098,0-1.90527-0.51025-2.41992-1.36523l-8.87402-14.73096
				c-0.79395-1.31787-0.37402-3.04736,0.93457-3.85498l9.42285-5.81348c0.44531-0.2749,0.95605-0.42041,1.47656-0.42041
				c0.99121,0,1.8916,0.50439,2.40918,1.34912l8.97656,14.66748c0.80859,1.32129,0.39355,3.05811-0.9248,3.87207l-9.56641,5.90088
				C229.21712,71.17748,228.71614,71.31713,228.20735,71.31713L228.20735,71.31713z"/>
			<path fill="#FFFFFF" d="M228.74696,46.63224c0.46558,0,0.88803,0.23611,1.13004,0.63153l8.97653,14.66754
				c0.37857,0.61862,0.18442,1.43166-0.43283,1.81247l-9.52499,5.87607c-0.21213,0.13089-0.44391,0.19724-0.68881,0.19724
				c-0.46942,0-0.89368-0.23904-1.13489-0.6395l-8.87384-14.73093c-0.37161-0.61685-0.17532-1.42639,0.43765-1.8045l9.42233-5.81276
				C228.27019,46.69859,228.50197,46.63224,228.74696,46.63224 M67.30523,46.63224c0.24506,0,0.47681,0.06635,0.68893,0.19719
				l9.42227,5.81273c0.61292,0.37811,0.80923,1.18765,0.43762,1.80453l-8.87381,14.7309
				c-0.24124,0.40042-0.6655,0.6395-1.13492,0.6395c-0.24493,0-0.47672-0.06635-0.68887-0.19724l-9.5249-5.87607
				c-0.61728-0.38077-0.81146-1.19385-0.43286-1.81247l8.97647-14.66747C66.4172,46.86835,66.83965,46.63224,67.30523,46.63224
				 M242.23378,68.66924c0.46545,0,0.88785,0.23607,1.12982,0.63153l8.03833,13.13443
				c0.37772,0.61719,0.18484,1.42949-0.43286,1.81245l-6.23926,3.84915l-3.42926,2.11559
				c-0.21216,0.13089-0.44391,0.19724-0.68881,0.19724c-0.46948,0-0.89374-0.23909-1.13498-0.63951l-7.94629-13.19115
				c-0.37161-0.61693-0.17529-1.4265,0.43765-1.80461l9.57666-5.90797C241.75682,68.73559,241.9886,68.66924,242.23378,68.66924
				 M53.8186,68.66924c0.24503,0,0.47681,0.06635,0.6889,0.19719l9.5766,5.90793c0.61292,0.37811,0.8092,1.18765,0.43759,1.80457
				l-7.9462,13.19112c-0.24124,0.4005-0.66553,0.63959-1.13498,0.63959c-0.24493,0-0.47665-0.06635-0.68881-0.19724
				l-6.54431-4.03731l-3.12708-1.92915c-0.61484-0.38124-0.80777-1.1935-0.42999-1.81073l8.03824-13.13438
				C52.9306,68.90536,53.35305,68.66924,53.8186,68.66924 M254.83116,89.14294c0.45822,0,0.87711,0.2305,1.12057,0.61658
				l8.5934,13.62895c0.25656,0.40689,0.21564,0.80486,0.16846,1.00584c-0.04724,0.201-0.18781,0.57555-0.59872,0.8257
				l-9.84486,5.99254c-0.21048,0.12808-0.44003,0.19304-0.68234,0.19304c-0.46182,0-0.88239-0.23323-1.12515-0.62389
				l-8.46707-13.62596c-0.25168-0.40497-0.21063-0.79965-0.16376-0.99889c0.04684-0.19923,0.18607-0.57085,0.59189-0.8212
				l3.45648-2.13239l6.26202-3.86319C254.35414,89.20928,254.58601,89.14294,254.83116,89.14294 M41.22103,89.14294
				c0.24518,0,0.47702,0.06635,0.71182,0.21118l3.12427,1.92743l6.57153,4.05411c0.40582,0.25035,0.54504,0.62196,0.59189,0.8212
				c0.04688,0.19919,0.08789,0.59389-0.16376,0.99889l-8.46704,13.62596c-0.24277,0.39066-0.66339,0.62389-1.12515,0.62389
				c-0.24231,0-0.47189-0.06496-0.68234-0.19304l-9.84494-5.99258c-0.41089-0.25011-0.55145-0.62465-0.59869-0.82565
				c-0.04718-0.20099-0.0881-0.59895,0.16846-1.00587l8.59339-13.62892C40.34393,89.37344,40.76281,89.14294,41.22103,89.14294
				 M228.74696,43.63224c-0.77377,0-1.55692,0.20773-2.26401,0.64397l-9.42227,5.81273
				c-2.01538,1.2433-2.65424,3.87733-1.43231,5.90576l8.87387,14.73088c0.81155,1.34723,2.24063,2.09151,3.70465,2.09151
				c0.77353,0,1.55673-0.2077,2.26395-0.644l9.52496-5.87608c2.02545-1.24954,2.65884-3.90184,1.4166-5.93169l-8.97656-14.66754
				C231.62096,44.36629,230.20088,43.63224,228.74696,43.63224L228.74696,43.63224z M67.30526,43.63224
				c-1.45404,0-2.87393,0.73393-3.6889,2.06554l-8.9765,14.66754c-1.24228,2.02985-0.60889,4.68214,1.41653,5.93169l9.52496,5.87608
				c0.70709,0.43622,1.49057,0.644,2.26398,0.644c1.46417,0,2.89304-0.74416,3.70468-2.09151l8.87381-14.73088
				c1.22189-2.02843,0.5831-4.66246-1.43228-5.90576l-9.42227-5.81273C68.8623,43.84005,68.07891,43.63224,67.30526,43.63224
				L67.30526,43.63224z M242.23363,65.66923c-0.77365,0.00002-1.55707,0.20782-2.26404,0.64397l-9.5766,5.90793
				c-2.01535,1.2433-2.65417,3.87735-1.43231,5.90581l7.94632,13.19119c0.81165,1.34732,2.24054,2.09149,3.70471,2.09149
				c0.77341,0,1.55685-0.20776,2.26395-0.644l3.42926-2.11557l6.24792-3.85448c2.01868-1.25168,2.64847-3.89934,1.40793-5.92638
				l-8.0383-13.13441C245.10753,66.40314,243.6877,65.6692,242.23363,65.66923L242.23363,65.66923z M53.8186,65.66923
				c-1.45404,0-2.8739,0.73392-3.68884,2.06555l-8.03827,13.13441c-1.24057,2.02704-0.61075,4.67471,1.4079,5.92639l3.1329,1.93274
				l6.54431,4.03729c0.70709,0.43623,1.49051,0.644,2.26392,0.644c1.46417,0,2.89307-0.74417,3.70471-2.09149l7.94626-13.19119
				c1.22189-2.02846,0.5831-4.66251-1.43228-5.90581l-9.57657-5.90793C55.37566,65.87705,54.59225,65.66923,53.8186,65.66923
				L53.8186,65.66923z M254.83116,86.14295c-0.77414,0-1.5575,0.20793-2.26419,0.64391l-0.01413,0.00871
				c-0.00284,0.00175-0.00577,0.00357-0.00861,0.00533l-6.23932,3.84915l-3.45648,2.13239
				c-2.03522,1.25554-2.66324,3.92558-1.40112,5.9567l8.46707,13.62596c0.81763,1.31581,2.22864,2.04051,3.67325,2.04051
				c0.76575,0,1.54077-0.20352,2.24222-0.63049l9.84486-5.99252c2.06079-1.25438,2.69482-3.95351,1.40808-5.99423l-8.59338-13.62892
				C257.66858,86.85761,256.26593,86.14295,254.83116,86.14295L254.83116,86.14295z M41.22106,86.14295
				c-1.43491,0-2.83734,0.71454-3.65823,2.01648l-8.59339,13.62892c-1.28677,2.04073-0.65274,4.73985,1.40805,5.99423
				l9.84491,5.99252c0.70129,0.42691,1.47659,0.63049,2.24219,0.63049c1.44473,0,2.85553-0.72458,3.67325-2.04051l8.46704-13.62596
				c1.26218-2.03111,0.63412-4.70116-1.40109-5.9567l-6.5715-4.05411l-3.12433-1.92743
				c-0.00284-0.00175-0.00574-0.00356-0.00858-0.00531l-0.01413-0.00873C42.77865,86.35096,41.99508,86.14295,41.22106,86.14295
				L41.22106,86.14295z"/>
		</g>
		<g>
			<rect x="18.6087" y="186.47752" fill="#FFFFFF" width="261.07605" height="118"/>
			<g>
				<path fill="#FDBB41" d="M29.26107,208.6472c-1.04395,0-1.98877-0.43848-2.59131-1.20312
					c-0.51074-0.64746-0.68994-1.43066-0.50439-2.20312l2.96631-12.36133c0.31055-1.29297,1.6123-2.23242,3.09522-2.23242h74.82324
					l-1.95654,18H29.26107z"/>
				<path fill="#FFFFFF" d="M105.37826,192.14732l-1.63043,15H29.26098c-0.58173,0-1.09689-0.23029-1.41345-0.63177
					c-0.22668-0.28751-0.30188-0.59882-0.22354-0.92532l2.96616-12.35995c0.14816-0.61737,0.8519-1.08295,1.637-1.08295H105.37826
					 M108.72201,189.14732h0.005H108.72201z M108.72201,189.14732H32.22713c-2.18662,0-4.07984,1.40631-4.55417,3.38287
					l-2.96616,12.35999c-0.64743,2.69791,1.56958,5.25714,4.55417,5.25714h77.17844L108.72201,189.14732L108.72201,189.14732z"/>
			</g>
			<g>
				<path fill="#FDBB41" d="M192.53548,208.6472l-1.95605-18h74.02931c1.48242,0,2.78418,0.93945,3.09473,2.2334l2.96582,12.35938
					c0.18555,0.77344,0.00684,1.55664-0.50391,2.2041c-0.60254,0.76465-1.54688,1.20312-2.59082,1.20312H192.53548z"/>
				<path fill="#FFFFFF" d="M264.6084,192.14732c0.78506,0,1.4888,0.46558,1.63699,1.08295l2.96619,12.35999
					c0.07837,0.32648,0.00317,0.63779-0.22351,0.92529c-0.31659,0.40149-0.83173,0.63177-1.41345,0.63177h-73.6931l-1.6304-15
					H264.6084 M264.6084,189.14732h-75.70103l2.28256,21h76.38469c2.98456,0,5.2016-2.55923,4.55414-5.25714l-2.96619-12.35999
					C268.6882,190.55363,266.79501,189.14732,264.6084,189.14732L264.6084,189.14732z"/>
			</g>
			<g>
				<polygon fill="#FDBB41" points="108.10091,208.6472 110.05746,190.6472 187.0677,190.6472 189.02376,208.6472 				"/>
				<path fill="#FFFFFF" d="M185.72176,192.14732l1.6304,15h-77.57922l1.6304-15H185.72176 M188.41335,189.14732h-79.70159
					l-2.28256,21h84.26672L188.41335,189.14732L188.41335,189.14732z"/>
			</g>
			<g>
				<path fill="#E5A337" d="M15.31478,273.64722c-1.06934,0-2.05957-0.47754-2.64844-1.27832
					c-0.50537-0.68652-0.64844-1.5-0.40234-2.29199l17.53711-56.36037c0.37891-1.21875,1.6333-2.06934,3.05029-2.06934h71.90576
					l-6.73877,62.00002H15.31478z"/>
				<path fill="#FFFFFF" d="M103.08544,213.14732l-6.41293,59.00002H15.31487c-0.59436,0-1.13284-0.24945-1.44043-0.66727
					c-0.22195-0.30148-0.28177-0.62363-0.17792-0.95746l17.53674-56.36006c0.18304-0.58826,0.86368-1.01523,1.61835-1.01523
					H103.08544 M106.42919,210.14732h0.005H106.42919z M106.42919,210.14732H32.85162c-2.07907,0-3.90726,1.27399-4.48288,3.12393
					l-17.53674,56.36003c-0.85934,2.76178,1.37903,5.51605,4.48288,5.51605H99.3641L106.42919,210.14732L106.42919,210.14732z"/>
			</g>
			<g>
				<path fill="#E5A337" d="M199.60091,273.64722l-6.73926-62.00002h73.22072c1.4375,0,2.69629,0.86621,3.0625,2.10742
					l16.59961,56.35939c0.23145,0.78809,0.08008,1.59473-0.42676,2.27246c-0.59082,0.78906-1.57617,1.26074-2.63574,1.26074
					H199.60091z"/>
				<path fill="#FFFFFF" d="M266.08279,213.14732c0.76453,0,1.44714,0.43359,1.62305,1.03091l16.59967,56.36003
					c0.09778,0.33212,0.0343,0.65176-0.18872,0.94998c-0.30865,0.41269-0.84491,0.65909-1.43439,0.65909h-81.73579
					l-6.41293-59.00002H266.08279 M266.08279,210.14732h-74.89287l7.06509,65.00002h84.42738
					c3.07617,0,5.3103-2.70856,4.50085-5.4567l-16.59961-56.36C270.03006,211.45119,268.18655,210.14732,266.08279,210.14732
					L266.08279,210.14732z"/>
			</g>
			<g>
				<polygon fill="#E5A337" points="100.90511,273.64722 107.64437,211.6472 189.21907,211.6472 195.95833,273.64722 				"/>
				<path fill="#FFFFFF" d="M187.87364,213.14732l6.41293,59.00002h-91.7094l6.41293-59.00002H187.87364 M190.56523,210.14732
					h-84.26672l-7.06509,65.00002h98.3969L190.56523,210.14732L190.56523,210.14732z"/>
			</g>
			<rect x="10.94316" y="216.50153" fill="#FFFFFF" width="276.40714" height="97.89862"/>
			<g>
				<g>
					<path fill="#F15940" d="M38.57015,239.58861c-0.85986,0-1.66162-0.38477-2.19971-1.05566s-0.73975-1.53711-0.55322-2.37695
						l2.74658-12.35938c0.28906-1.2998,1.4209-2.20801,2.75293-2.20801h60.21143l-1.81152,18H38.57015z"/>
					<path fill="#FFFFFF" d="M99.86977,223.08812l-1.50977,15H38.57012c-0.55106,0-0.88165-0.30954-1.02963-0.49402
						c-0.14804-0.18454-0.37848-0.57437-0.25894-1.1123l2.74664-12.35999c0.13525-0.60861,0.66513-1.03369,1.28857-1.03369H99.86977
						 M103.18688,220.08812h0.005H103.18688z M103.18688,220.08812H41.31676c-2.02478,0-3.77789,1.40631-4.21713,3.38287
						l-2.74664,12.36002c-0.59952,2.69788,1.45343,5.25711,4.21713,5.25711h62.50311L103.18688,220.08812L103.18688,220.08812z"/>
				</g>
				<g>
					<polygon fill="#F15940" points="102.73177,239.58861 104.5433,221.58861 194.03645,221.58861 195.84895,239.58861 					"/>
					<path fill="#FFFFFF" d="M192.68004,223.08812l1.50974,15h-89.79943l1.50974-15H192.68004 M195.39323,220.08812h-92.20635
						l-2.11365,21h96.43365L195.39323,220.08812L195.39323,220.08812z"/>
				</g>
				<g>
					<path fill="#F15940" d="M198.8636,239.58861l-1.8125-18h59.00197c1.33203,0,2.46387,0.9082,2.75293,2.20801l2.74707,12.35938
						c0.18555,0.83984-0.0166,1.70605-0.55469,2.37793c-0.53809,0.66992-1.33984,1.05469-2.19922,1.05469H198.8636z"/>
					<path fill="#FFFFFF" d="M256.0527,223.08812c0.62344,0,1.15332,0.42508,1.28857,1.03366l2.74667,12.35999
						c0.11954,0.53796-0.11093,0.9278-0.25894,1.11234c-0.14801,0.18448-0.47858,0.49402-1.02963,0.49402h-58.5793l-1.50974-15
						H256.0527 M256.0527,220.08812h-60.65947l2.11365,21h61.2925c2.7637,0,4.81665-2.55923,4.21713-5.25714l-2.74667-12.35999
						C259.8306,221.49443,258.07748,220.08812,256.0527,220.08812L256.0527,220.08812z"/>
				</g>
				<g>
					<path fill="#D84E39" d="M25.66537,304.58862c-0.89404,0-1.71533-0.41016-2.25293-1.12402
						c-0.53809-0.71484-0.7041-1.61816-0.45654-2.47754l16.23876-56.36037c0.34571-1.2002,1.46046-2.03809,2.70997-2.03809h57.50977
						l-6.23975,62.00002H25.66537z"/>
					<path fill="#FFFFFF" d="M97.75613,244.08812l-5.93835,59.00002H25.66558c-0.57309,0-0.9068-0.32974-1.05472-0.52628
						s-0.37234-0.60849-0.21368-1.15918l16.23895-56.36c0.16193-0.56204,0.68353-0.95456,1.2684-0.95456H97.75613
						 M101.07323,241.08812h0.005H101.07323z M101.07323,241.08812h-59.1687c-1.92523,0-3.6181,1.27399-4.15112,3.12396
						l-16.23895,56.36c-0.79575,2.76178,1.27698,5.51605,4.15112,5.51605H94.531L101.07323,241.08812L101.07323,241.08812z"/>
				</g>
				<g>
					<polygon fill="#D84E39" points="96.18978,304.58862 102.42953,242.58861 196.15071,242.58861 202.39095,304.58862 					"/>
					<path fill="#FFFFFF" d="M194.79369,244.08812l5.93832,59.00002H97.84811l5.93832-59.00002H194.79369 M197.50688,241.08812
						h-96.43365L94.531,306.08813h109.51812L197.50688,241.08812L197.50688,241.08812z"/>
				</g>
				<g>
					<path fill="#D84E39" d="M205.40559,304.58862l-6.24023-62.00002h58.25294c1.26855,0,2.38672,0.85352,2.71973,2.07715
						l15.37207,56.36037c0.2334,0.85547,0.05859,1.75-0.47949,2.4541s-1.35547,1.1084-2.24121,1.1084H205.40559z"/>
					<path fill="#FFFFFF" d="M257.41797,244.08812c0.59363,0,1.11728,0.39999,1.27347,0.97269l15.37122,56.36006
						c0.14941,0.54791-0.07648,0.95474-0.22449,1.1485c-0.14795,0.19373-0.48102,0.51877-1.04901,0.51877h-66.02681
						l-5.93835-59.00002H257.41797 M257.41797,241.08812h-59.91109l6.54224,65.00002h68.74004
						c2.84851,0,4.9173-2.70856,4.16779-5.45667l-15.37122-56.36003C261.07315,242.39198,259.36606,241.08812,257.41797,241.08812
						L257.41797,241.08812z"/>
				</g>
			</g>
		</g>
	</g>
</g>
</svg>

